<svg version="1" xmlns="http://www.w3.org/2000/svg" width="682.667" height="682.667" viewBox="0 0 512.000000 512.000000"><path d="M113.7 82.8L80 116.5v108.4l8.8.3 8.7.3v31l-8.7.3-8.8.3V464h351V275.1l-8.2-.3-8.3-.3v-116l8.3-.3 8.2-.3V49H147.5l-33.8 33.8zm96.8 24.2v35.5h-33l-.3-34.5c-.1-19 0-35.1.3-35.8.3-1 4.2-1.2 16.7-1l16.3.3V107zm60 0v35.5h-33l-.3-34.5c-.1-19 0-35.1.3-35.8.3-1 4.2-1.2 16.7-1l16.3.3V107zm57 0v35.5h-33l-.3-34.5c-.1-19 0-35.1.3-35.8.3-1 4.2-1.2 16.7-1l16.3.3V107zm60 0v35.5h-33l-.3-34.5c-.1-19 0-35.1.3-35.8.3-1 4.2-1.2 16.7-1l16.3.3V107zm-235 36v35.5h-33l-.3-34.5c-.1-19 0-35.1.3-35.8.3-1 4.2-1.2 16.7-1l16.3.3V143zm99 154v113.5l-28.8.3c-33 .3-37.1-.3-49.7-6.9-14.2-7.4-25.8-22.3-29.5-38.1-2.2-9.3-2.2-128.3 0-137.6 3.8-15.8 15.2-30.7 29.5-38.1 12.5-6.6 15.5-7 49-6.8l29.5.2V297zm73.4-112.5c15.9 3.8 31.2 15.8 38.5 30.3 6.6 13.1 6.6 12.8 6.6 82.2 0 51.6-.3 63.6-1.5 68.8-3.7 15.8-15.3 30.7-29.5 38.1-12.1 6.3-17.5 7.2-42.7 6.9l-21.8-.3-.3-112.5c-.1-61.9 0-113.1.3-113.8.7-1.9 42-1.7 50.4.3z"/><path d="M193.2 202.1c-6.9 1.3-16.8 6.8-21.5 11.8-5 5.4-9.3 13.9-10.7 21.2-1.3 6.9-1.3 117 0 123.9 1.5 7.7 6.6 17.3 11.9 22.3 5.4 5 13.9 9.3 21.2 10.7 6.3 1.2 38.6 1.3 39.3.2.3-.5.2-43.7-.1-96l-.6-95.2-17.6.1c-9.7.1-19.5.5-21.9 1zm12.1 29c8.2 2.2 15.1 11.5 15.1 20.4 0 11.4-10.1 21.5-21.4 21.5-15.2 0-26.2-17.3-19.3-30.5 5.3-10 15-14.4 25.6-11.4zM313 286.9c-10.9 3.4-17.2 13.3-15.6 24.6.8 5.3 5.8 13.1 10.4 16.2 7 4.7 18.5 4.2 25.5-1.1 9.1-6.9 12.1-18 7.3-27.5-5.4-10.5-16.6-15.5-27.6-12.2z"/></svg>